<?xml version="1.0" standalone="no"?>
<!DOCTYPE svg PUBLIC "-//W3C//DTD SVG 20010904//EN"
 "http://www.w3.org/TR/2001/REC-SVG-20010904/DTD/svg10.dtd">
<svg version="1.0" xmlns="http://www.w3.org/2000/svg"
 width="200.000000pt" height="200.000000pt" viewBox="0 0 200.000000 200.000000"
 preserveAspectRatio="xMidYMid meet">
<metadata>
Created by potrace 1.14, written by Peter Selinger 2001-2017
</metadata>
<g transform="translate(0.000000,200.000000) scale(0.100000,-0.100000)"
fill="#000000" stroke="none">
<path d="M944 1974 c-17 -8 -100 -84 -184 -169 l-153 -154 6 -41 c7 -50 39
-79 89 -80 34 0 47 10 158 120 68 68 130 120 140 120 11 0 158 -137 364 -342
l346 -342 0 -509 0 -509 29 -29 c40 -39 82 -39 122 0 l29 29 0 531 c0 315 -4
540 -10 555 -12 31 -779 794 -823 819 -39 21 -72 21 -113 1z"/>
<path d="M995 1493 c-11 -2 -29 -6 -41 -8 -23 -5 -454 -426 -473 -464 -16 -30
-17 -82 -1 -112 7 -13 92 -105 190 -204 97 -99 180 -188 183 -197 4 -12 -37
-59 -145 -167 l-150 -151 -122 0 c-82 0 -126 4 -134 12 -9 9 -12 122 -12 447
l0 436 92 92 c87 88 93 95 92 133 -1 24 -9 49 -19 60 -23 25 -76 35 -105 20
-35 -19 -220 -208 -230 -236 -6 -15 -10 -237 -10 -537 0 -483 1 -514 19 -543
34 -57 67 -64 279 -64 105 0 202 4 216 10 15 5 101 84 193 175 92 91 174 165
182 165 8 0 92 -76 186 -169 185 -184 205 -197 262 -166 35 19 49 51 44 103 0
8 -73 86 -162 175 -186 187 -192 193 -178 218 5 10 87 96 183 191 95 95 178
183 185 195 14 28 14 88 -1 116 -20 38 -448 455 -476 464 -15 5 -36 8 -47 6z
m173 -366 c116 -116 151 -158 146 -171 -11 -28 -296 -306 -314 -306 -18 0
-303 278 -314 306 -5 13 31 55 146 171 85 84 160 153 168 153 8 0 83 -69 168
-153z"/>
</g>
</svg>
